<svg xmlns="http://www.w3.org/2000/svg" width="18.28" height="24" fill="none"><path d="M2.1 24h14.07c1.17 0 2.11-.95 2.11-2.1V7.02h-4.92c-1.16 0-2.11-.94-2.11-2.1V0H2.11C.95 0 0 .95 0 2.1v19.8C0 23.04.95 24 2.1 24zM4.93 9.9h8.44a.7.7 0 110 1.4H4.92a.7.7 0 110-1.4zm0 2.8h8.44a.7.7 0 110 1.4H4.92a.7.7 0 110-1.4zm0 2.82h8.44a.7.7 0 110 1.4H4.92a.7.7 0 110-1.4zm0 2.8h5.63a.7.7 0 110 1.41H4.92a.7.7 0 110-1.4z" fill="#bf3654"></path><path d="M13.36 5.63h4.5L12.67.4v4.51c0 .39.31.7.7.7z" fill="#bf3654"></path></svg>