<svg xmlns="http://www.w3.org/2000/svg" width="24" height="20.3907" fill="none"><path d="M5.625 9.1407C2.5184 9.1407 0 11.659 0 14.7657c0 3.1065 2.5184 5.625 5.625 5.625s5.625-2.5185 5.625-5.625c0-3.1066-2.5184-5.625-5.625-5.625zm0 7.7343c-1.163 0-2.1094-.9462-2.1094-2.1093s.9463-2.1094 2.1094-2.1094c1.163 0 2.1094.9463 2.1094 2.1094 0 1.163-.9463 2.1093-2.1094 2.1093zM18.375 4.2188c0-.3877.3155-.7032.7031-.7032V2.1094c-1.1631 0-2.1093.9463-2.1093 2.1094v3.9375h1.4062z" fill="#bf3654"></path><path d="M14.9113 13.3593c.974-1.68 2.7922-2.8125 4.8699-2.8125a5.588 5.588 0 012.8125.7552v-.7552c0-1.5509-1.2616-2.8124-2.8125-2.8124h-9.4977A8.3881 8.3881 0 005.6249 6.328c-1.9564 0-3.8635.685-5.3695 1.9288l.8954 1.0844c1.2548-1.0362 2.8438-1.607 4.4741-1.607 3.3955 0 6.2366 2.4196 6.8899 5.625zM14.9112 13.3593h-2.3956l.1406 3.5156h1.544a5.6454 5.6454 0 01-.044-.703c0-.4855.6389-2.3629.755-2.8126z" fill="#bf3654"></path><path d="M19.7812 11.9532c-2.33 0-4.2187 1.8887-4.2187 4.2187s1.8887 4.2187 4.2187 4.2187C22.1113 20.3907 24 18.502 24 16.172s-1.8887-4.2188-4.2188-4.2188zm0 4.9218a.7031.7031 0 11.7032-.7031.703.703 0 01-.7032.703zM3.5156 6.9844a9.8304 9.8304 0 012.1094-.2295c1.7946 0 3.5365.485 5.0656 1.4063h2.7391l-1.292-6.755h1.2217V0h-11.25v1.4063h1.4062z" fill="#bf3654"></path></svg>