<svg xmlns="http://www.w3.org/2000/svg" width="24" height="21.394" fill="none"><g clip-path="url(#clip0)" transform="translate(0 -1.303)" fill="#bf3654"><path d="M23.745 9.753l-11.377-8.33a.623.623 0 00-.736 0L.255 9.753a.624.624 0 10.737 1.006L12 2.699l11.008 8.06a.62.62 0 00.871-.135.623.623 0 00-.134-.871z"></path><path d="M20.73 8.118a.624.624 0 00-.623.623V21.45h-4.989v-5.418A3.122 3.122 0 0012 12.914a3.122 3.122 0 00-3.118 3.118v5.418H3.893V8.74a.624.624 0 00-1.247 0v13.332c0 .345.28.624.624.624h6.236a.623.623 0 00.623-.623v-6.042c0-1.032.84-1.871 1.871-1.871 1.032 0 1.871.84 1.871 1.87v6.043l.002.047a.623.623 0 00.622.576h6.235c.345 0 .624-.28.624-.624V8.741a.624.624 0 00-.624-.623z"></path><path d="M9.5 15.5V22h-6V8.5L12 2l8.5 6.5V22h-6v-6.5c-2.4-4.4-4.333-1.833-5 0z"></path></g><defs id="defs75"><clipPath id="clip0"><path fill="#fff" id="rect72" d="M0 0h24v24H0z"></path></clipPath></defs></svg>