<svg fill="#bf3654" xmlns="http://www.w3.org/2000/svg" width="30" height="30" viewBox="0 0 30 30"><path d="M18 11A1 1 0 1 0 18 13A1 1 0 1 0 18 11Z"></path><path d="M15,3C8.373,3,3,8.373,3,15c0,6.627,5.373,12,12,12s12-5.373,12-12C27,8.373,21.627,3,15,3z M8.004,22C8.003,22,8.001,22,8,22l0.005-0.003c0.002-2.789,1.587-3.405,1.587-3.405l0.191,0.191c0,0-0.586,0.716-0.586,2.011v0.012l0.01,0.002c1.295,0,2.011-0.586,2.011-0.586l0.191,0.191C11.409,20.413,10.792,21.998,8.004,22z M21.966,8.065C21.934,12.044,18.989,16.011,17,18c0,2-1,5-3,6c0-0.982,0-3.295,0-5l-2,1l-1.969-2l1-2c-1.705,0-4.018,0-5,0c1-2,4-3,6-3c1.99-1.989,5.957-4.934,9.935-4.966l0.002-0.002c0,0.001,0,0.001,0,0.002C21.979,8.033,21.989,8.032,22,8.032L21.966,8.065z"></path></svg>