<svg xmlns="http://www.w3.org/2000/svg" width="24" height="23.81" fill="none"><path d="M22.39 6.31A11.93 11.93 0 0011.88 0C7.2 0 2.95 2.75 1.03 7a.88.88 0 001.6.72 10.18 10.18 0 0118.16-.69l-1.56.71 4.26 3.05.51-5.21zm-.25 9.73a.88.88 0 00-1.17.4 10.1 10.1 0 01-9.1 5.62 10.1 10.1 0 01-8.71-4.96l1.53-.76-4.37-2.9L0 18.68l1.59-.8c2.13 3.68 6 5.93 10.29 5.93 4.54 0 8.62-2.53 10.65-6.6a.88.88 0 00-.39-1.17z" fill="#bf3654"></path><path d="M11.48 18.9h1.07l.01-1.16c2.18-.16 3.43-1.35 3.44-3.06 0-1.8-1.5-2.62-3.06-3l-.34-.08.02-2.9c.82.15 1.34.63 1.42 1.36h1.82c-.03-1.61-1.3-2.79-3.23-2.97V5.9h-1.07V7.1c-1.92.2-3.29 1.36-3.29 3.04 0 1.5 1.07 2.35 2.78 2.8l.46.11-.02 3.07c-.91-.14-1.57-.66-1.63-1.58H8c.07 1.9 1.38 3.04 3.48 3.21zm1.09-2.79l.02-2.79c.93.27 1.52.63 1.52 1.35 0 .75-.6 1.29-1.54 1.44zm-1.05-4.78c-.7-.23-1.34-.6-1.33-1.32 0-.65.5-1.16 1.35-1.3z" fill="#bf3654"></path></svg>